<svg xmlns="http://www.w3.org/2000/svg" version="1.1" xmlns:xlink="http://www.w3.org/1999/xlink" width="2000" height="304" viewBox="0 0 2000 304"><svg xml:space="preserve" width="2000" height="304" data-version="2" data-id="lg_lSqezT354dhERiot9Y" viewBox="0 0 712 304" x="0" y="0"><rect width="100%" height="100%" fill="transparent"></rect><path fill="#f2dfcf" d="M389.547 222.03q-3.31 5.34-8.93 10.58-5.63 5.24-12.84 9.42-7.2 4.19-15.71 6.75-8.51 2.57-17.58 2.57-7.1 0-14.17-1.27-7.06-1.26-13.57-3.86-6.5-2.6-12.09-6.58-5.59-3.97-9.74-9.38-4.15-5.42-6.5-12.31-2.36-6.89-2.36-15.33 0-8.22 2.43-15.61 2.42-7.38 6.78-13.67t10.34-11.36q5.97-5.06 13.08-8.61 7.1-3.55 14.97-5.45 7.88-1.9 16.1-1.9 9.07 0 17.06 2.15 7.98 2.14 13.95 6.04 5.98 3.91 9.46 9.36 3.48 5.44 3.48 12.12 0 6.19-2.88 11.78-2.89 5.59-7.91 9.81-5.03 4.22-11.75 6.68-6.71 2.46-14.3 2.46-6.12 0-10.83-1.51t-7.88-4.18q-3.16-2.68-4.78-6.26-1.62-3.59-1.62-7.74 0-3.44 1.09-6.29t2.39-4.89q1.31-2.04 2.47-3.2l1.3-1.3q.35-.35.81-.45.45-.11.87-.11 1.13 0 1.9.7.78.71.78 1.83 0 1.27-.92 2.11-.14.07-.98.95-.85.88-1.83 2.39-.98 1.51-1.79 3.62-.81 2.11-.81 4.64 0 4.01 1.79 6.75 1.79 2.75 4.68 4.47 2.88 1.72 6.4 2.46 3.51.74 7.03.74 6.54 0 12.27-2.11 5.73-2.11 10.02-5.63 4.28-3.51 6.75-8.08 2.46-4.57 2.46-9.57 0-5.48-3.1-10.01-3.09-4.54-8.36-7.74-5.28-3.2-12.34-4.96-7.07-1.75-15.09-1.75-6.04 0-12.69 1.44-6.64 1.44-13.11 4.32-6.47 2.88-12.34 7.17t-10.3 10.02q-4.43 5.73-7.07 12.83-2.63 7.11-2.63 15.54 0 7.67 2.14 13.86 2.14 6.18 5.94 11 3.8 4.82 8.9 8.33 5.09 3.52 10.96 5.8 5.88 2.29 12.27 3.38 6.4 1.09 12.73 1.09 8.44 0 16.24-2.36 7.81-2.35 14.45-6.19 6.65-3.83 11.78-8.61 5.13-4.78 8.16-9.63.35-.63.98-.95.63-.32 1.34-.32 1.19 0 1.89.81.71.81.71 1.79 0 .36-.07.71t-.28.7"></path><rect width="113.84" height="105.33" x="-56.92" y="-52.66" fill="none" rx="0" ry="0" transform="translate(333.48 199.19)"></rect><path fill="#f2dfcf" d="M402.337 242.14q1.13-2.39 2.6-5.17 1.48-2.78 3.17-5.69 1.69-2.92 3.58-5.8 1.9-2.89 3.94-5.42 2.04-2.46 4.11-3.55 2.08-1.09 3.91-1.09t3.2.74q1.37.74 2.25 2 .88 1.27 1.33 2.96.46 1.68.46 3.65 0 1.62-.32 4.33-.31 2.7-.31 5.66 0 1.68.17 3.34.18 1.65.64 2.95.45 1.3 1.37 2.11.91.81 2.39.81 1.68 0 3.37-.95 1.69-.95 3.31-2.53 1.61-1.58 3.09-3.52 1.48-1.93 2.67-3.87 1.2-1.93 2.11-3.72.92-1.8 1.48-2.99.7-1.62 2.46-1.62 1.19 0 1.9.85.7.84.7 1.82 0 .57-.21 1.06-.28.56-1.09 2.32-.81 1.76-2.18 4.08-1.37 2.32-3.2 4.85t-4.04 4.67q-2.22 2.15-4.78 3.52-2.57 1.37-5.38 1.37-3.24 0-5.21-1.37-1.96-1.37-3.05-3.48-1.09-2.11-1.48-4.71-.39-2.6-.39-5.06 0-1.27.11-2.71.1-1.44.24-2.85.15-1.4.25-2.63.11-1.24.11-2.08 0-2.18-.6-2.95-.6-.78-1.37-.78-1.13 0-2.57 1.31-1.44 1.3-3.02 3.41-1.58 2.1-3.17 4.74-1.58 2.64-3.06 5.24-1.47 2.6-2.67 4.96-1.19 2.35-1.97 3.9-1.47 2.95-2.98 3.97-1.52 1.02-2.71 1.02-2.18 0-3.34-1.72-1.16-1.72-1.16-4.19v-4.42q0-13.29.03-25.35.04-12.06.36-22.43.31-10.37 1.05-18.78.74-8.4 2.22-14.34 1.47-5.94 3.76-9.18 2.28-3.23 5.73-3.23 2.95 0 4.99 1.62 2.04 1.61 3.3 4.39 1.27 2.78 1.83 6.47t.56 7.77q0 8.3-1.51 16.28t-4.04 15.57q-2.53 7.6-5.91 14.8-3.37 7.21-7.1 14.03v12.3Zm0-25.95q2.96-6.46 5.38-12.62 2.43-6.15 4.15-12.27 1.72-6.11 2.71-12.41.98-6.29.98-13.11 0-1.12-.1-3.59-.11-2.46-.64-4.99-.52-2.53-1.61-4.43t-3.06-1.9q-1.55 0-2.67 2.08-1.13 2.07-1.97 5.62-.85 3.55-1.41 8.26-.56 4.72-.91 9.99-.36 5.27-.53 10.83-.18 5.55-.25 10.79-.07 5.24-.07 9.81z"></path><rect width="58.92" height="103.71" x="-29.46" y="-51.85" fill="none" rx="0" ry="0" transform="translate(426.96 197.96)"></rect><path fill="#f2dfcf" d="M505.207 228.5q-.28.56-1.16 2.35-.88 1.8-2.25 4.12-1.37 2.32-3.2 4.85t-4.08 4.64q-2.25 2.11-4.85 3.48-2.6 1.37-5.48 1.37-4.08 0-6.86-2.6-2.78-2.6-4.04-6.54-2.39 4.01-5.7 6.36-3.3 2.36-6.61 2.36-2.6 0-4.71-.95t-3.58-2.67q-1.48-1.72-2.29-4.04-.81-2.32-.81-5.07 0-5.48 1.87-9.66 1.86-4.19 4.74-7 2.88-2.81 6.37-4.22 3.48-1.41 6.71-1.41 2.18 0 4.01.6 1.83.6 3.13 1.3 1.3.71 2 1.3.7.6.77.67.78.92.78 1.9 0 1.05-.78 1.86-.77.81-1.82.81-1.13 0-1.9-.77-.14-.14-.64-.53-.49-.39-1.33-.81-.84-.42-2.01-.74-1.16-.31-2.63-.31-2.18 0-4.64.98-2.46.99-4.5 3.06-2.04 2.07-3.41 5.2-1.37 3.13-1.37 7.42 0 1.34.28 2.71.28 1.37.98 2.49.71 1.13 1.9 1.83 1.2.71 2.95.71 1.27 0 2.92-.85 1.65-.84 3.17-2.6 1.51-1.76 2.74-4.43 1.23-2.67 1.72-6.33.14-.98.91-1.65.78-.67 1.83-.67.99 0 1.73.78.73.77.8 1.75.07 1.34.29 3.77.21 2.42.94 4.81.74 2.39 2.22 4.15 1.48 1.76 4.08 1.76 1.68 0 3.34-.92 1.65-.91 3.23-2.42 1.58-1.51 3.02-3.45 1.45-1.93 2.64-3.9 1.2-1.97 2.11-3.8.92-1.82 1.55-3.16.35-.77 1.02-1.2.67-.42 1.44-.42 1.19 0 1.93.88t.74 1.86q0 .5-.21.99"></path><rect width="55.83" height="35.44" x="-27.91" y="-17.72" fill="none" rx="0" ry="0" transform="translate(478 232.09)"></rect><path fill="#f2dfcf" d="M557.307 177.73q0 1.13-.77 1.8-.78.66-1.9.66h-35.65v.78q0 4.29-.63 9.14-.63 4.85-1.72 9.67-1.09 4.81-2.47 9.38-1.37 4.57-2.81 8.44-1.44 3.87-2.85 6.72-1.4 2.84-2.53 4.25.92 3.23 2.18 6.01 1.27 2.78 2.85 4.85 1.58 2.08 3.41 3.27 1.83 1.2 3.94 1.2 2.46 0 4.88-2.08 2.43-2.07 4.5-4.92 2.08-2.85 3.66-5.76 1.58-2.92 2.29-4.68.7-1.69 2.46-1.69 1.19 0 1.93.85.74.84.74 1.82 0 .5-.21.99t-1.02 2.25q-.81 1.76-2.11 4.08-1.3 2.32-3.02 4.88-1.73 2.57-3.87 4.68-2.15 2.11-4.61 3.51-2.46 1.41-5.2 1.41-4.85 0-8.72-3.16-3.87-3.17-6.57-8.86-2.71-5.7-4.12-13.5-1.4-7.81-1.4-17.09 0-2.32.07-5.45.07-3.13.28-6.61.21-3.48.63-7.17.42-3.69 1.13-7.21h-25.25q-1.12 0-1.89-.66-.78-.67-.78-1.8 0-1.12.78-1.79.77-.67 1.89-.67h26.44q.71-2.53 1.65-4.64.95-2.11 2.18-3.65 1.23-1.55 2.75-2.43 1.51-.88 3.34-.88 1.75 0 3.05.88 1.31.88 2.22 2.43.91 1.54 1.44 3.65.53 2.11.81 4.64h35.93q1.12 0 1.9.67.77.67.77 1.79m-52.94 43.81q2.11-4.64 3.83-10.02 1.72-5.38 2.95-10.86 1.23-5.49 1.9-10.76.67-5.28.67-9.71h-8.3q-.98 4.36-1.58 10.8-.6 6.43-.6 15.64 0 5.13.28 8.62.28 3.48.85 6.29m6.54-52.6q-.64 0-1.83 1.38-1.2 1.37-2.39 4.95h6.75q-.36-2.95-1.02-4.64-.67-1.69-1.51-1.69m-5.42 57.66v.07Z"></path><rect width="85.15" height="85.57" x="-42.58" y="-42.78" fill="none" rx="0" ry="0" transform="translate(515.23 206.96)"></rect><path fill="#f2dfcf" d="M541.347 219.22q-.28 1.9-.7 3.55-.42 1.65-.81 2.88-.39 1.23-.67 2.01-.28.77-.35.84-.7 1.62-2.46 1.62-.99 0-1.83-.74-.84-.74-.84-1.87 0-.42.14-.63.14-.21.42-.84.28-.63.7-2.11.42-1.48 1.06-4.57-1.2 0-2.46-.07-1.27-.07-2.36-.49-1.09-.43-1.79-1.34-.71-.91-.71-2.53 0-1.2.67-3.24.67-2.03 1.8-4 1.12-1.97 2.53-3.41 1.4-1.45 2.81-1.45 1.62 0 2.64 1.2t1.58 2.92q.56 1.72.81 3.62.24 1.9.24 3.3 1.2 0 2.36-.03 1.16-.04 2.21-.04 4.01 0 6.12 1.76 2.11 1.76 2.11 5.77 0 1.61-.21 3.37t-.49 3.62q-.29 1.87-.5 3.69-.21 1.83-.21 3.59 0 2.53.71 4.18.7 1.66 1.75 2.64 1.06.99 2.25 1.37 1.2.39 2.18.39 3.03 0 5.7-1.97 2.67-1.97 4.92-4.75 2.25-2.77 4.04-5.87 1.8-3.09 2.99-5.41.35-.63.99-.99.63-.35 1.33-.35 1.27 0 1.97.81t.7 1.79q0 .71-.28 1.27-1.61 2.88-3.76 6.5-2.14 3.62-4.89 6.79-2.74 3.16-6.15 5.34-3.41 2.18-7.49 2.18-2.53 0-4.78-.95-2.25-.95-3.9-2.74-1.65-1.79-2.64-4.43-.98-2.64-.98-5.94 0-3.52.7-7 .71-3.48.71-6.64 0-1.34-.6-2-.6-.67-2.64-.67h-2.14q-1.16 0-2.5.07m-4.71-5.21q0-.49-.04-1.3-.03-.8-.14-1.58-.1-.77-.28-1.33-.17-.57-.38-.57-.22 0-.53.53-.32.53-.67 1.27-.35.73-.63 1.58-.28.84-.42 1.4Z"></path><rect width="54" height="46.69" x="-27" y="-23.34" fill="none" rx="0" ry="0" transform="translate(556.19 226.68)"></rect><path fill="#f2dfcf" d="M589.087 192.92q0 2.67-1.86 4.54-1.86 1.86-4.54 1.86-2.67 0-4.53-1.86-1.86-1.87-1.86-4.54 0-1.34.49-2.5t1.37-2.03q.88-.88 2.04-1.38 1.16-.49 2.49-.49 1.34 0 2.5.49 1.16.5 2.04 1.38.88.87 1.37 2.03.49 1.16.49 2.5m-11.39 41.2q0-10.12 1.27-20.18.14-.98.88-1.72.73-.74 1.93-.74 1.05 0 1.76.81.7.81.7 1.87 0 .42-.17 2.53l-.43 5.02q-.24 2.92-.42 6.19-.17 3.27-.17 6.01 0 3.73.73 6.01.74 2.29 1.9 3.56 1.16 1.26 2.46 1.68 1.3.42 2.5.42 1.97 0 4.08-1.4 2.11-1.41 4.32-3.94 2.22-2.53 4.47-6.08 2.25-3.55 4.43-7.91.35-.7.98-1.09.63-.39 1.41-.39 1.12 0 1.86.85.74.84.74 1.82 0 .71-.28 1.2-.85 1.62-2.11 3.94-1.27 2.32-2.88 4.78-1.62 2.46-3.56 4.89-1.93 2.42-4.11 4.35-2.18 1.94-4.57 3.13-2.39 1.2-4.85 1.2-3.16 0-5.56-1.34-2.39-1.33-4.04-3.58t-2.46-5.31q-.81-3.06-.81-6.58m7.46-41.2q0-.98-.74-1.72t-1.73-.74q-.98 0-1.68.74-.71.74-.71 1.72 0 .99.71 1.69.7.7 1.68.7.99 0 1.73-.7t.74-1.69"></path><rect width="36.63" height="64.41" x="-18.32" y="-32.2" fill="none" rx="0" ry="0" transform="translate(595.11 219.22)"></rect><path fill="#f2dfcf" d="M667.137 228.64q-.21.42-.91 1.72-.71 1.3-1.83 3.03-1.13 1.72-2.67 3.65-1.55 1.94-3.38 3.55-1.83 1.62-3.94 2.67-2.11 1.06-4.36 1.06-3.65 0-6.18-1.3-2.54-1.3-4.15-2.92-1.13 2.46-2.74 4.5-1.62 2.04-3.59 3.55-1.97 1.51-4.18 2.36-2.22.84-4.54.84-4.29 0-7.31-2.53-3.03-2.53-5.03-6.79-2-4.25-3.13-9.87-1.12-5.63-1.72-11.82-.6-6.18-.74-12.51t-.14-12.03q0-10.89.63-18.88.64-7.98 1.73-13.57 1.09-5.59 2.53-9.07 1.44-3.48 3.06-5.41 1.61-1.93 3.3-2.64 1.69-.7 3.31-.7 2.6 0 4.6 1.55 2 1.54 3.38 4.32 1.37 2.78 2.07 6.72.7 3.93.7 8.64 0 7.53-1.61 15.54-1.62 8.02-4.19 16-2.56 7.98-5.73 15.68-3.16 7.7-6.26 14.59.43 3.44 1.27 6.57.84 3.13 2.18 5.56 1.34 2.42 3.16 3.87 1.83 1.44 4.22 1.44 2.39 0 4.5-1.37 2.11-1.38 3.66-3.59 1.55-2.22 2.42-5.03.88-2.81.88-5.76 0-1.97-.38-3.98-.39-2-1.2-3.58-.81-1.58-2-2.57-1.2-.98-2.89-.98-1.26 0-1.96.52-.71.53-1.06 1.2-.35.67-.42 1.3t-.07.84q0 .99.42 1.97.42.99 1.62 1.76 1.19.84 1.19 2.32 0 1.2-.81 1.9-.8.7-1.79.7-1.4 0-2.49-.84-1.09-.84-1.87-2.15-.77-1.3-1.19-2.77-.43-1.48-.43-2.74 0-2.04.71-3.77.7-1.72 1.93-2.95 1.23-1.23 2.81-1.9 1.59-.67 3.34-.67 3.03 0 5.24 1.41 2.22 1.41 3.69 3.73 1.48 2.32 2.18 5.27.71 2.95.71 5.98 0 1.75-.21 3.44.28.56.91 1.48.63.91 1.69 1.76 1.05.84 2.53 1.47 1.47.64 3.44.64 1.69 0 3.48-1.3 1.8-1.31 3.45-3.24 1.65-1.93 3.06-4.15 1.4-2.21 2.32-4.11.35-.7.98-1.09.64-.39 1.41-.39 1.19 0 1.93.85.74.84.74 1.89 0 .43-.28 1.13m-54.35-9.07q2.39-5.91 4.85-12.41 2.46-6.5 4.43-13.25 1.97-6.75 3.23-13.65 1.27-6.89 1.27-13.57 0-2.53-.25-5.3-.24-2.78-.88-5.1-.63-2.32-1.72-3.87-1.09-1.55-2.78-1.55-.56 0-1.44.74-.88.74-1.86 2.6-.98 1.87-1.97 5.17-.98 3.31-1.79 8.4-.81 5.1-1.34 12.27-.53 7.18-.53 16.88 0 3.23.07 6.57.08 3.34.18 6.37.11 3.02.25 5.55t.28 4.15"></path><rect width="60.82" height="105.82" x="-30.41" y="-52.91" fill="none" rx="0" ry="0" transform="translate(637.5 198.94)"></rect><path fill="#f2dfcf" d="M670.797 240.38q1.47 2.04 3.79 3.27 2.32 1.23 5.7 1.23 3.44 0 6.26-1.65 2.81-1.65 5.13-4.32 2.32-2.68 4.15-5.98 1.83-3.31 3.3-6.61.35-.77.99-1.16.63-.39 1.4-.39 1.2 0 1.94.85.73.84.73 1.82 0 .36-.07.6-.07.25-.21.53-4.85 10.69-10.58 16.1-5.73 5.41-12.97 5.56-4.64 0-8.02-1.8-3.37-1.79-5.55-4.64-2.18-2.85-3.24-6.43-1.05-3.59-1.05-7.17 0-3.59.88-6.61.88-3.03 2.53-5.28 1.65-2.25 3.94-3.51 2.28-1.27 5.02-1.27 1.62 0 3.2.67 1.59.67 2.85 1.9 1.27 1.23 2.04 2.99.77 1.75.77 4 0 2.89-.98 5.42-.99 2.53-2.71 4.71t-4.11 4.01q-2.39 1.83-5.13 3.16m-2.11-4.57q2.18-.91 3.97-2.32 1.79-1.41 3.06-3.09 1.26-1.69 1.97-3.55.7-1.87.7-3.77 0-2.1-1.06-3.19-1.05-1.09-2.46-1.09-1.89 0-3.23 1.05-1.34 1.06-2.18 2.74-.84 1.69-1.23 3.76-.39 2.08-.39 4.12 0 1.26.25 2.67.24 1.41.6 2.67"></path><rect width="41.69" height="36.71" x="-20.84" y="-18.36" fill="none" rx="0" ry="0" transform="translate(683.84 232.38)"></rect><path fill="#f2dfcf" d="M197.641 2.915h-9.939c-8.614 0-16.896 4.307-21.534 11.927l-19.216 31.142H82.68L63.133 14.842C58.826 7.222 50.543 2.915 41.93 2.915h-9.939c-13.915 0-25.179 11.264-25.179 25.179v215.345c0 22.86 13.252 43.4 34.124 52.677l2.32.993c6.625 2.65 13.914 3.976 21.202 3.976h100.384c7.289 0 14.578-1.325 21.204-3.976l2.319-.993c20.872-9.277 34.124-29.817 34.124-52.677V28.425c.33-13.914-10.933-25.51-24.848-25.51m-21.203 18.222c2.319-3.976 6.626-6.295 11.264-6.295h9.939c7.289 0 13.252 5.963 13.252 13.252v40.75c-10.602-13.915-27.167-22.86-45.72-22.86h-4.306zm14.908 128.213c-3.313-2.32-7.62-3.313-11.926-3.313-4.307 0-8.283 1.325-11.927 3.313 0 0-12.258 8.282-18.222 12.258l-6.294-33.793c7.288-8.614 17.89-13.914 29.485-13.914 15.903 0 30.149 9.939 35.78 24.847 1.657 4.307 2.32 8.945 2.32 13.583v10.27c-4.307-2.65-18.884-13.251-19.216-13.251m.332 19.878c0 6.626-5.301 11.926-11.927 11.926s-11.927-5.3-11.927-11.926 5.3-11.927 11.927-11.927c6.295 0 11.927 5.3 11.927 11.927m-43.07 54.002-13.914 22.86V146.036zm-9.938-119.6c6.626-12.59 19.546-20.54 33.792-20.54 20.54 0 37.437 16.565 38.1 37.105-8.945-11.264-22.86-17.89-37.769-17.89-11.926 0-23.19 4.307-32.136 11.596zm26.504-45.72c18.221 0 33.792 10.602 41.08 26.174-8.944-8.283-20.871-13.252-33.792-13.252-14.246 0-27.498 5.963-36.774 16.233l-.994-7.951c-.331-2.982-2.982-4.97-5.963-4.97h-27.167c-2.982 0-5.3 1.988-5.963 4.97l-1.326 7.951C85 76.795 71.747 70.831 57.501 70.831c-12.92 0-24.847 4.97-33.793 13.252 7.29-15.24 23.191-26.172 41.082-26.172zm-57.647 208.057V86.071h14.909v179.896zm-26.504-43.069 13.915-76.861v99.39zm11.927 43.07H80.03V254.04h5.632zM18.74 28.093c0-7.289 5.632-13.252 13.252-13.252h9.939c4.638 0 8.945 2.319 11.264 6.294l15.571 24.848h-4.307c-18.552 0-35.117 8.945-45.719 22.86zm38.1 54.664c14.245 0 27.166 7.951 33.792 20.54L88.975 113.9c-8.945-7.288-20.21-11.595-32.136-11.595-14.909 0-28.824 6.626-38.1 17.559.663-20.54 17.559-37.106 38.1-37.106m11.264 207.063h-3.976c-5.963 0-11.595-1.325-17.227-3.313-2.982-2.32-5.301-5.301-6.295-8.614h27.498zm0-23.854H40.605c2.319-6.957 8.945-11.927 16.896-11.927h10.602zM57.5 242.445c-16.234 0-29.486 13.252-29.486 29.486-5.963-7.952-9.276-17.56-9.276-27.83v-27.166c9.276 10.933 22.86 17.89 38.1 17.89 5.3 0 10.601-.663 15.57-2.32l5.964 9.94zm-19.215-54.002c3.313 2.32 7.62 3.313 11.926 3.313 4.307 0 8.283-1.325 11.927-3.313 0 0 8.945-6.295 15.24-10.27l-7.62 42.406c-3.975 1.325-8.282 2.32-12.59 2.32-21.202 0-38.099-17.228-38.099-38.1v-9.608c5.301 3.644 19.216 13.252 19.216 13.252m-.332-19.215c0-6.626 5.301-11.927 11.927-11.927s11.927 5.3 11.927 11.927-5.3 11.926-11.927 11.926-11.927-5.3-11.927-11.926m23.523-19.547c-2.982-2.32-6.958-3.644-11.596-3.644-4.307 0-8.282 1.325-11.927 3.313 0 0-14.577 9.939-19.546 13.252v-10.27c0-4.639.994-9.277 2.319-13.584 5.632-14.908 19.878-24.847 35.78-24.847 11.264 0 22.197 5.3 29.486 13.914l-6.295 34.124c-5.632-3.644-18.221-12.258-18.221-12.258M80.03 277.894h28.823v11.927H80.03zm69.241 11.927H120.78v-11.927h28.492zm.332-23.854h-12.921l7.288-11.927h5.633zm33.13 20.54c-5.301 2.32-11.265 3.314-17.228 3.314h-3.976v-11.927h27.498c-1.325 3.313-3.313 6.295-6.294 8.614m-21.204-20.54V254.04h10.602c7.62 0 14.246 4.97 16.896 11.927zm49.364-21.867c0 10.27-3.313 19.878-9.276 27.498 0-16.233-13.252-29.485-29.486-29.485h-20.872l5.963-9.94c4.97 1.657 10.27 2.32 15.572 2.32 15.24 0 29.154-6.958 38.099-17.89zm.331-59.965c0 21.203-17.227 38.1-38.1 38.1-4.637.33-8.944-.332-12.92-1.988l-7.62-42.407c6.295 4.307 15.24 10.27 15.24 10.27 3.644 2.32 7.62 3.314 11.927 3.314 4.307 0 8.282-1.326 11.927-3.313 0 0 14.577-9.94 19.546-13.252z"></path></svg></svg>